<svg width="1600" height="900" viewBox="0 0 1600 900" fill="none" xmlns="http://www.w3.org/2000/svg">
  <defs>
    <linearGradient id="bg" x1="0" y1="0" x2="1600" y2="900" gradientUnits="userSpaceOnUse">
      <stop stop-color="#0E0A08"/>
      <stop offset="1" stop-color="#1E130D"/>
    </linearGradient>
    <radialGradient id="glow1" cx="0" cy="0" r="1" gradientUnits="userSpaceOnUse" gradientTransform="translate(500 340) rotate(33) scale(460 290)">
      <stop stop-color="#FFB45E" stop-opacity="0.76"/>
      <stop offset="1" stop-color="#FFB45E" stop-opacity="0"/>
    </radialGradient>
    <radialGradient id="glow2" cx="0" cy="0" r="1" gradientUnits="userSpaceOnUse" gradientTransform="translate(1130 620) rotate(45) scale(420 260)">
      <stop stop-color="#FF7A2F" stop-opacity="0.64"/>
      <stop offset="1" stop-color="#FF7A2F" stop-opacity="0"/>
    </radialGradient>
    <linearGradient id="ring" x1="272" y1="140" x2="1300" y2="760" gradientUnits="userSpaceOnUse">
      <stop stop-color="#FFC172"/>
      <stop offset="1" stop-color="#D1722A"/>
    </linearGradient>
    <linearGradient id="line" x1="216" y1="92" x2="1388" y2="812" gradientUnits="userSpaceOnUse">
      <stop stop-color="#6A4A2B"/>
      <stop offset="1" stop-color="#3A2919"/>
    </linearGradient>
  </defs>

  <rect width="1600" height="900" rx="24" fill="url(#bg)"/>
  <rect width="1600" height="900" rx="24" fill="url(#glow1)"/>
  <rect width="1600" height="900" rx="24" fill="url(#glow2)"/>

  <g opacity="0.4">
    <path d="M120 180H1480" stroke="url(#line)" stroke-width="1"/>
    <path d="M120 300H1480" stroke="url(#line)" stroke-width="1"/>
    <path d="M120 420H1480" stroke="url(#line)" stroke-width="1"/>
    <path d="M120 540H1480" stroke="url(#line)" stroke-width="1"/>
    <path d="M120 660H1480" stroke="url(#line)" stroke-width="1"/>
    <path d="M120 780H1480" stroke="url(#line)" stroke-width="1"/>
    <path d="M240 96V804" stroke="url(#line)" stroke-width="1"/>
    <path d="M420 96V804" stroke="url(#line)" stroke-width="1"/>
    <path d="M600 96V804" stroke="url(#line)" stroke-width="1"/>
    <path d="M780 96V804" stroke="url(#line)" stroke-width="1"/>
    <path d="M960 96V804" stroke="url(#line)" stroke-width="1"/>
    <path d="M1140 96V804" stroke="url(#line)" stroke-width="1"/>
    <path d="M1320 96V804" stroke="url(#line)" stroke-width="1"/>
  </g>

  <g opacity="0.96">
    <ellipse cx="790" cy="460" rx="430" ry="218" stroke="url(#ring)" stroke-width="3"/>
    <ellipse cx="790" cy="460" rx="340" ry="166" stroke="url(#ring)" stroke-width="2"/>
    <ellipse cx="790" cy="460" rx="256" ry="122" stroke="url(#ring)" stroke-width="1.5"/>
    <ellipse cx="790" cy="460" rx="184" ry="88" stroke="url(#ring)" stroke-width="1.2"/>
  </g>

  <g opacity="0.9">
    <path d="M388 498C506 395 618 339 794 338C965 338 1098 406 1197 514" stroke="#FFBF70" stroke-width="3" stroke-linecap="round"/>
    <path d="M438 552C556 475 653 438 796 438C936 438 1042 484 1138 566" stroke="#F38A3B" stroke-width="2.4" stroke-linecap="round"/>
  </g>

  <g filter="url(#shadow)" opacity="0.95">
    <rect x="638" y="304" width="322" height="312" rx="16" fill="#140E0B" stroke="#7E532F"/>
    <path d="M798 350L690 456L798 562L906 456L798 350Z" fill="url(#ring)" fill-opacity="0.22" stroke="#D98A45" stroke-width="2"/>
    <path d="M798 370L722 456L798 542L874 456L798 370Z" fill="#1E140F" stroke="#F0A560" stroke-width="1.5"/>
    <rect x="682" y="584" width="232" height="10" rx="5" fill="#523520"/>
    <rect x="682" y="602" width="172" height="8" rx="4" fill="#37251A"/>
  </g>

  <g opacity="0.95">
    <circle cx="462" cy="284" r="8" fill="#FFBC6A"/>
    <circle cx="522" cy="244" r="5" fill="#FF9F4C"/>
    <circle cx="1148" cy="266" r="6" fill="#FFB86D"/>
    <circle cx="1180" cy="620" r="9" fill="#FF8F42"/>
    <circle cx="496" cy="648" r="6" fill="#FFAA57"/>
  </g>

  <defs>
    <filter id="shadow" x="610" y="280" width="380" height="360" filterUnits="userSpaceOnUse" color-interpolation-filters="sRGB">
      <feFlood flood-opacity="0" result="BackgroundImageFix"/>
      <feColorMatrix in="SourceAlpha" type="matrix" values="0 0 0 0 0 0 0 0 0 0 0 0 0 0 0 0 0 0 127 0" result="hardAlpha"/>
      <feOffset dy="7"/>
      <feGaussianBlur stdDeviation="7"/>
      <feComposite in2="hardAlpha" operator="out"/>
      <feColorMatrix type="matrix" values="0 0 0 0 0.97 0 0 0 0 0.57 0 0 0 0 0.26 0 0 0 0.33 0"/>
      <feBlend mode="normal" in2="BackgroundImageFix" result="effect1_dropShadow_0_1"/>
      <feBlend mode="normal" in="SourceGraphic" in2="effect1_dropShadow_0_1" result="shape"/>
    </filter>
  </defs>
</svg>
